<svg id="图层_1" data-name="图层 1" xmlns="http://www.w3.org/2000/svg" viewBox="0 0 512 512"><defs><style>.cls-1{fill:#bfbfbf;}</style></defs><path class="cls-1" d="M9.437,323.731l316.194-.106c-1.671,8.043-2.376,13.932-4.808,22.05-8.129,27.122-22.659,48.382-41.537,68.806-22.143,21.742-52.942,38.574-83.514,43.9A162.57,162.57,0,0,1,74.909,430.612a160.821,160.821,0,0,1-61.825-88.747C11.375,335.542,10.542,330.146,9.437,323.731Z"/><path class="cls-1" d="M335.5,50.735c33.546-2.95,72.585,10.212,100.125,29.285A157.459,157.459,0,0,1,496.9,163.014a211.778,211.778,0,0,1,5.661,24.707c-17.078.635-37.526.076-54.792.025l-92.523-.084L187.4,187.7a166.136,166.136,0,0,1,37.689-83.21C253.637,71.379,292.371,53.728,335.5,50.735Z"/><path class="cls-1" d="M326.783,188.75c3.134,1.266,15.069,3.9,19.895,5.453,23.8,7.641,42.993,18.492,61.25,35.632A161.8,161.8,0,0,1,459.87,343.913c1.367,44.92-15.09,85.022-45.569,117.5-22.955,25.082-54.371,40.712-87.464,46.9l.027-235.128C326.837,245.145,327.105,216.75,326.783,188.75Z"/><path class="cls-1" d="M182.847,3.838l1.821-.155.674.6c.559,1.961.3,16.417.306,19.306l.021,52.751L185.636,321.4c-34.3-6.052-60.455-19.45-85.7-43.431C76.886,255,62.082,228.808,55.97,196.607A165.021,165.021,0,0,1,81.449,71.8C104.606,37.686,142.243,11.525,182.847,3.838Z"/></svg>