<?xml version="1.0" encoding="utf-8" ?><svg xmlns="http://www.w3.org/2000/svg" xmlns:xlink="http://www.w3.org/1999/xlink" width="581" height="581" viewBox="0 0 581 581"><path fill="#F6F5F8" fill-opacity="0.0078431377" transform="scale(0.567383 0.567383)" d="M0 0L1024 0L1024 1024L0 1024L0 0ZM892.814 611.114L892.428 610.652L892.674 610.078L891.055 609.651C889.679 610.326 890.001 610.338 889.057 611.831L888.319 611.857C886.91 615.013 880.737 637.094 880.971 639.812C882.907 635.38 883.842 630.886 885.475 626.396C887.359 621.22 890.134 615.927 892.814 611.114ZM481.842 447.455C479.348 446.768 476.572 446.272 474.02 445.753C471.565 446.121 468.871 444.918 466.498 444.149C466.012 445.053 466.279 444.776 466.673 446.32C469.221 447.014 470.36 445.888 471.192 446.914L470.606 447.484L481.842 447.455ZM690.201 627.139C682.716 628.226 675.97 632.244 671.449 638.309C662.344 650.47 665.397 668.241 683.184 668.272C692.258 666.184 696.379 664.232 702.136 656.339C710.055 645.483 705.888 626.36 690.201 627.139Z"/><path fill="#F4F3F3" transform="scale(0.567383 0.567383)" d="M474.02 445.753C461.451 441.354 453.927 437.516 443.961 428.34C399.862 387.742 421.057 311.825 481.16 300.567C481.766 309.874 481.478 321.878 481.49 331.483C481.559 347.861 481.534 364.24 481.417 380.619C487.51 357.86 496.162 344.377 516.651 331.94C550.353 311.484 596.948 325.493 615.793 359.46C620.223 367.444 623.981 376.383 624.85 385.402L481.48 385.065L481.528 447.467C491.386 446.923 503.169 447.266 513.157 447.265C522.876 447.265 534.037 446.946 543.648 447.383C543.76 457.821 539.516 465.858 534.313 474.699C521.405 496.634 499.428 510.279 473.774 510.633C453.839 510.959 434.616 503.23 420.455 489.196C409.396 478.444 401.022 463.034 399.366 447.591C423.153 447.235 446.871 447.638 470.606 447.484L481.842 447.455C479.348 446.768 476.572 446.272 474.02 445.753Z"/><path fill="#F4F3F3" transform="scale(0.567383 0.567383)" d="M757.215 554.584L762.657 554.134C754.744 569.706 752.574 582.539 748.538 599.308C745.556 611.792 742.485 624.254 739.325 636.694C737.317 644.628 734.896 655.366 731.587 662.574C728.854 668.446 725.19 673.838 720.738 678.541C713.33 686.458 704.75 692.431 694.251 695.393C678.236 699.91 658.709 701.67 645.585 689.403C629.491 674.113 633.28 650.375 641.382 632.018C653.032 605.62 689.664 590.036 716.148 602.989C720.029 575.867 729.362 560.3 757.215 554.584ZM683.184 668.272C692.258 666.184 696.379 664.232 702.136 656.339C710.055 645.483 705.888 626.36 690.201 627.139C682.716 628.226 675.97 632.244 671.449 638.309C662.344 650.47 665.397 668.241 683.184 668.272Z"/><path fill="#F4F3F3" transform="scale(0.567383 0.567383)" d="M483.846 572.219C495.203 570.732 509.801 574.622 518.731 581.889C530.227 591.242 533.345 604.455 534.776 618.528C523.635 618.528 512.17 618.666 501.056 618.367C499.571 614.639 497.456 609.316 494.017 607.28C479.195 599.446 462.251 606.056 452.43 618.971C436.579 639.816 440.67 672.073 473.665 666.32C483.157 664.665 489.183 657.455 494.287 649.345C504.472 648.851 515.555 649.148 525.866 648.976L526.263 649.625C525.058 655.307 518.797 663.629 515.153 668.418C494.288 695.838 456.05 710.564 426.355 687.516C412.266 676.016 408.439 655.718 411.516 638.741C417.657 604.853 449.379 574.882 483.846 572.219Z"/><path fill="#F4F3F3" transform="scale(0.567383 0.567383)" d="M543.476 385.665C556.426 386.322 570.641 394.347 579.971 402.937C612.796 433.16 613.456 480.811 583.75 513.068C572.078 525.528 560.338 531.069 544.084 534.75L543.476 385.665Z"/><path fill="#F4F3F3" transform="scale(0.567383 0.567383)" d="M586.155 598.187C609.919 596.58 628.737 607.342 631.695 632.127C634.895 658.934 613.657 687.589 588.554 695.597C582.226 697.615 576.999 698.378 570.476 699.112C572.898 688.931 575.745 678.345 578.368 668.181C585.505 666.152 591.686 664.273 596.256 657.942C602.772 648.916 603.073 637.55 593.415 630.928C577.161 623.895 557.743 639.143 561.322 656.741C562.393 662.011 568.339 665.356 572.731 667.735C570.29 678.121 567.684 688.468 564.914 698.771C558.317 697.907 549.046 695.35 543.97 690.764C508.054 658.316 545.613 602.713 586.155 598.187Z"/><path fill="#F4F3F3" transform="scale(0.567383 0.567383)" d="M341.873 567.219L348.415 567.047L337.571 587.316C338.029 592.712 343.224 625.603 342.191 628.252C337.119 641.251 327.36 658.362 320.599 671.27C318.861 661.919 315.38 637.755 315.312 628.821C311.715 634.171 309.474 639.661 306.496 645.244C299.327 658.691 291.343 676.79 282.1 688.642C271.503 699.902 256.464 702.262 241.652 702.398C244.972 694.569 249.985 686.844 254.114 679.28C262.002 664.506 270.032 649.808 278.202 635.189C283.167 626.254 288.077 617.289 292.933 608.295C306.762 582.27 309.501 569.439 341.873 567.219Z"/><path fill="#F4F3F3" transform="scale(0.567383 0.567383)" d="M225.237 567.704C227.408 567.45 231.738 567.543 234.1 567.534L201.523 616.975C194.658 627.352 187.384 637.794 181.428 648.706C178.451 654.16 176.149 660.541 174.349 666.462C172.176 673.616 172.11 680.869 167.4 686.994C161.226 695.024 151.83 700.053 141.916 701.372C138.925 702.132 135.988 702.294 132.916 702.569C134.944 693.002 137.792 682.715 140.125 673.156C142.067 665.198 144.632 655.063 147.754 647.638C148.792 645.17 153.318 638.17 154.947 635.552L168.068 614.553C184.675 588.012 191.132 570.825 225.237 567.704Z"/><path fill="#F4F3F3" transform="scale(0.567383 0.567383)" d="M414.755 569.729L415.356 569.71L415.712 570.398C414.372 573.952 410.958 579.708 409.015 583.219L397.312 604.49L373.819 649.08C369.046 658.177 363.989 667.149 359.11 676.135C348.648 695.403 334.326 701.143 312.877 702.038L311.826 701.878L311.528 701.044C312.843 695.778 332.102 661.85 335.876 654.459C343.275 640.799 350.327 626.257 357.634 612.613C365.808 597.352 370.713 584.695 387.314 576.978C397.066 572.444 404.062 570.943 414.755 569.729Z"/><path fill="#F4F3F3" transform="scale(0.567383 0.567383)" d="M788.958 599.654L789.141 599.827C789.814 601.441 781.84 630.163 780.374 632.974C776.09 641.19 765.286 652.89 774.512 662.441C786.573 674.927 795.411 664.925 806.986 660.843C812.27 659.539 831.838 660.849 838.253 660.996C830.639 673.948 821.985 683.593 808.744 690.955C804.539 693.29 800.087 695.148 795.47 696.494C751.558 709.241 726.077 669.334 747.188 631.565C754.921 617.732 773.467 603.585 788.958 599.654Z"/><path fill="#F4F3F3" transform="scale(0.567383 0.567383)" d="M892.814 611.114L894.022 609.768C905.094 597.177 914.868 596.087 930.9 596.001C918.456 607.307 914.693 618.274 911.158 633.951C895.986 629.206 891.744 632.885 880.464 641.615C870.137 677.17 877.304 700.426 832.304 699.995C850.894 661.26 840.483 612.795 893.277 598.346C891.386 602.253 889.508 607.662 888.319 611.857C886.91 615.013 880.737 637.094 880.971 639.812C882.907 635.38 883.842 630.886 885.475 626.396C887.359 621.22 890.134 615.927 892.814 611.114Z"/><path fill="#F4F3F3" transform="scale(0.567383 0.567383)" d="M266.682 566.184C267.138 566.093 267.604 566.212 268.11 566.273C269.537 568.644 270.665 594.643 271.295 599.385C272.296 606.917 272.872 616.768 273.82 624.558C274.043 626.388 273.958 629.68 273.173 631.431C267.24 643.449 260.547 655.116 254.391 667.033C252.84 670.035 249.849 676.421 247.765 678.805L247.062 678.597L246.657 676.561C242.701 649.184 240.783 621.241 237.246 593.783C236.308 586.506 235.275 578.698 234.854 571.409C239.43 569.893 260.87 567.052 266.682 566.184Z"/><path fill="#F4F3F3" transform="scale(0.567383 0.567383)" d="M800.321 598.192C834.988 596.229 847.693 623.757 840.659 654.383C828.006 654.123 815.351 653.959 802.696 653.892C796.562 654.124 787.968 653.678 781.661 653.536C782.21 648.8 783.63 635.08 789.928 635.324C796.34 635.571 803.175 635.583 809.586 635.867C803 626.301 797.747 627.884 787.457 630.022C788.603 624.991 790.29 619.435 791.558 614.349C792.611 610.125 794.11 603.075 795.648 599.215C796.859 598.17 798.606 598.319 800.321 598.192Z"/><path fill="#F4F3F3" transform="scale(0.567383 0.567383)" d="M116.315 567.586C146.146 565.579 157.462 573.238 169.113 600.601C165.199 607.895 157.776 619.102 153.151 626.801C150.138 632.027 147.029 637.198 143.826 642.31C141.894 638.211 139.969 632.072 138.383 627.687C135.104 618.759 131.881 609.811 128.713 600.843C124.818 589.922 119.708 578.438 116.315 567.586Z"/><path fill="#F4F3F3" fill-opacity="0.015686275" transform="scale(0.567383 0.567383)" d="M888.319 611.857L889.057 611.831C890.001 610.338 889.679 610.326 891.055 609.651L892.674 610.078L892.428 610.652L892.814 611.114C890.134 615.927 887.359 621.22 885.475 626.396C883.842 630.886 882.907 635.38 880.971 639.812C880.737 637.094 886.91 615.013 888.319 611.857Z"/><path fill="#F4F3F3" fill-opacity="0.023529412" transform="scale(0.567383 0.567383)" d="M470.606 447.484L471.192 446.914C470.36 445.888 469.221 447.014 466.673 446.32C466.279 444.776 466.012 445.053 466.498 444.149C468.871 444.918 471.565 446.121 474.02 445.753C476.572 446.272 479.348 446.768 481.842 447.455L470.606 447.484Z"/></svg>